<?xml version="1.0" encoding="UTF-8"?>
<svg id="Layer_1" data-name="Layer 1" xmlns="http://www.w3.org/2000/svg" viewBox="0 0 512 512">
  <defs>
    <style>
      .cls-1 {
        fill: #4a1a1a;
      }

      .cls-2 {
        fill: #f4f1eb;
      }
    </style>
  </defs>
  <rect class="cls-2" width="512" height="512"/>
  <g>
    <path class="cls-1" d="M39.64,399.31l-.98-18.55,29.79-6.84c.65-1.62,1.05-5.37,1.22-11.23.16-5.86.32-13.83.49-23.93.16-10.09.24-22.29.24-36.62v-91.8c0-14.65-.08-27.1-.24-37.35-.17-10.25-.33-18.31-.49-24.17-.17-5.86-.57-9.44-1.22-10.74l-29.79-6.84.98-18.55h104l.98,18.55-29.79,6.84c-.66.98-1.22,4.15-1.71,9.52s-.82,13.18-.98,23.44c-.17,10.25-.24,23.36-.24,39.31v91.8c0,15.62.08,28.49.24,38.57.16,10.09.49,17.82.98,23.19s1.05,8.71,1.71,10.01l29.79,6.84-.98,18.55H39.64Z"/>
    <path class="cls-1" d="M371.77,403.71c-28.32,0-54.12-5.45-77.39-16.36-23.28-10.9-41.92-27.18-55.91-48.83-14-21.64-21-48.42-21-80.32,0-20.51,3.58-39.8,10.74-57.86,7.16-18.07,17.65-34.01,31.49-47.85s30.68-24.66,50.54-32.47c19.85-7.81,42.48-11.72,67.87-11.72,13.34,0,27.5,1.3,42.48,3.91,14.97,2.61,28.32,6.35,40.04,11.23l3.42,66.89-21.97,1.95-14.65-46.39c-6.19-4.23-14.33-7.4-24.41-9.52-10.09-2.11-19.86-3.17-29.3-3.17-24.41,0-44.36,5.29-59.81,15.87-15.46,10.58-26.86,24.66-34.18,42.24s-10.99,36.95-10.99,58.11c0,27.67,4.8,51.11,14.4,70.31,9.6,19.21,22.62,33.69,39.06,43.46,16.43,9.77,34.58,14.65,54.44,14.65,10.41,0,19.85-1.14,28.32-3.42,8.46-2.27,16.6-5.69,24.41-10.25l21.48-45.9,22.46,2.44-13.67,61.52c-11.07,5.86-24.25,10.91-39.55,15.14-15.3,4.23-31.42,6.35-48.34,6.35Z"/>
  </g>
</svg>